<svg 
 width="150" 
 height="50" 
 viewBox="0 0 479 152" 
 fill="none" 
 xmlns="http://www.w3.org/2000/svg"
 
 >
<path 
    d="M236 26.5V27M236 27V29L236.5 32L265.5 90.5H276L306.5 28V27H294.5L270.5 73.5H269L249 30L245.5 28L245 27H236ZM1 21.5V90.5H45L49.5 89L58 86L64 83.5L72.5 77.5L80.5 67L84 60L86 52V42.5L85 35.5L81.5 28.5L73.5 18.5L64 12L55.5 9L47 6.5L39.5 5.5H29.5L24.5 6.5L19.5 9L13 13.5L10 15L2.5 18.5H1V21.5ZM93.5 1V90.5H99L103.5 89.5L107.5 86L108.5 83.5V47L112 41.5L117.5 38.5H130.5L134 40.5L137.5 44.5L139 47V83.5L141 87L144.5 89.5L149.5 90.5H154.5V47L153 42.5L150.5 38.5L147 33.5L142.5 30L139 28L134.5 27H120L116 28.5L112 30L109 33L108.5 33.5V6.5L104.5 3L101 1H93.5ZM173 40L176 37L182 33.5L190 29L195 27L202.5 26.5L207.5 27L214 29L219 33L222.5 38L226 45.5V77.5L223.5 79.5L220.5 81.5H217.5L215 82.5L213 84.5L209 87L204 89.5L199.5 90.5H184.5L178.5 89.5L174 86.5L170.5 82.5L167.5 77.5L166.5 72V67L167.5 62L170.5 56.5L177 51L182 49.5L185 48H194H202.5L206 49H209H210.5V47L209 44.5L207.5 42.5L204 40L202 38.5L197.5 38H191.5L187 38.5L184 40L179.5 42.5L176 44L174 43L173 40ZM192.5 59H207L210.5 60.5V72.5L208.5 75L205 77.5L201.5 78.5L199.5 79.5H190.5L187 78.5L184 76L182 73V67L183 64L185.5 62L188.5 59.5L192.5 59ZM318.5 42.5V40L319 38L328.5 32L337 28L343.5 27H352L356 28L360 30L364 33L366.5 35.5L368 38L370 42.5L371 46V77L368.5 79.5L367 80.5L365 81.5L361 82.5L358 84.5L354 87.5L348.5 89.5L344.5 91H330.5L326.5 89.5L322.5 87.5L319.5 86L317 83L314.5 80.5L312.5 76L311.5 71V67L312.5 63L314.5 59L318 54.5L322.5 51.5L325.5 50L331.5 48H348.5L351 48.5L353.5 49H356L354.5 45.5L353 43.5L350.5 40L346.5 38H340.5H333.5L330.5 39L327.5 40L324.5 42L321.5 43.5H319.5L318.5 42.5ZM336 59H351L354.5 60L355.5 61V73L353.5 75L351 76.5L348.5 78L345.5 79.5H334.5L332 78L329.5 76L327.5 73.5V65.5L329.5 63L332 61L336 59ZM386.5 42.5V90.5L390.5 91L394 90.5L398.5 87.5L401 85.5V48L404 43.5L407.5 40L412.5 38H421.5L426 40L429 42.5L430.5 45.5L432 49V84.5L434 86L436.5 89L440 90.5L443 91H447.5V46L446 42.5L444.5 38.5L441.5 34.5L439 32L435 30L430 28L427.5 27H411.5L408 28.5L404 30.5L401 33.5L398.5 35.5L396.5 37L392 38.5L388 40L386.5 42.5ZM463.5 34.5V89.5L465 91H470.5C471.833 90.5 474.6 89.3 475 88.5C475.4 87.7 477.167 86.1667 478 85.5L478.5 83.5V28L477 27H472.5L469.5 28L466.5 29.5L464.5 30.5L463.5 34.5ZM465 9.5L463.5 12.5V15.5L465 17.5L467 19L469.5 20H473L475.5 19L477 17L478 15.5V11.5L476.5 9.5L475 8.5L473 8H468L465 9.5ZM16 25.5V80.5H39.5L45 79L50.5 77L54.5 74.5L58 72L61.5 69.5L64.5 66L67 62.5L69 59L70 55L70.5 50.5C70.5 47.3333 70.5 40.9 70.5 40.5C70.5 40.1 69.5 37.6667 69 36.5L67 31.5L64 27L59 22.5L54.5 20L51.5 18.5L47 17L43 16H30L25 17L21.5 19L18.5 21.5L16 23.5V25.5ZM277.5 116.5V138L278.5 140.5L280.5 142.5L283 144.5L285 145.5H292.5L294 144.5L296 143.5L298 141.5L299.5 139.5L300.5 138.5V129.5L299 127L297 125L295.5 124L293 123L291.5 122.5H286L284.666 123L283 124L280.5 125.5V116.5H277.5ZM285 126.5L283 128L282 129.5L281 131V136.5L282 138.5L283.5 140L285 141.5L286 142.5H291.664L293 141.5L295 140L296 138.5L297 136.5V130L294 127L292.5 126H286L285 126.5ZM313 123L309.5 125.5L307 128L306.5 130V138.5L307.5 140.5L309 142L311 143.5L312.5 145L314.5 145.5H322.5L324.5 144L326.5 142.5L328.5 140L329.5 138V129.5L328 127L326.5 125L324 123.5L322 122.5H313V123ZM314.5 126L312 128.5L310.5 130L310 131.5V136L311 138L312 139.5L313 140.687L314.5 141.844L321.5 142L323.5 140.687L325 139L326.5 136.5V131L325 129L323 127L321.5 126H314.5ZM336.5 122.5H339.5V138L341.5 140.687L343 142H349L351 140.687L352 138.5V122.5H355.5V141.5L353 144L352 145L349.5 145.5H341L338.5 144L336.5 141.5L336 140.687V122.5H336.5ZM365.5 116.5H368.5V123.5H373.5V126.5H368.5V144.324H365.5C365.667 138.383 365.9 126.5 365.5 126.5C365.1 126.5 362.667 126.5 361.5 126.5V123.5H365.5V116.5ZM379.5 123.5V144.5H383V123.5H379.5ZM379.5 116.5V121.5C380.433 121.5 382.339 121.5 382.5 121.5C382.661 121.5 382.567 118.167 382.5 116.5H379.5ZM394.5 124.5L391.5 127L389.5 129.5V139.5L393 143L395.5 145L397.5 145.5H405.5L408 144L409.5 142.5V151L409 151.5H413V129.721L410.5 127L407 124.5L405.5 123.5H396.5L394.5 124.5ZM398 127.5C397.6 127.5 394.833 129.5 393.5 130.5L392.5 133V137.5L395 140L397 142H404.5L407.5 139.5L409 137.5V131.5L406.5 128.5L404.5 127.351L398 127.5ZM420.5 123.5V140L423.5 143.5L425.5 145.5H435L437.5 143L439.5 140.5V123.5H436V138.5L434 141L433 142H426.5L424.5 140L424 138.5V123.5H420.5ZM450 134H469.5V129.721L467.5 127L464.5 124L462.5 122.5H453.5L450.5 124.5L448 127L446.5 129.5V139L449.5 142L453.5 145L454.34 145.5H461.5L467 142.5L468.5 140L469.5 138V136.5H465.5V138.5L464 140L462 141.5H454.34L451.5 139.5L450 137.5V134ZM453 127.5L451 129.721V130.5H465V129.721L463 128L461 126H454.5L453 127.5Z" 
    stroke="white"/>
</svg>

